<svg xmlns="http://www.w3.org/2000/svg" width="11.166" height="13.839" viewBox="0 0 11.166 13.839">
  <path id="Trande_icon-92fds" d="M.291,12.839a.291.291,0,1,1,0-.581H9.874a.291.291,0,1,1,0,.581Zm8.224-1.311a.291.291,0,0,1-.291-.291l0-.008,0-.009V3.83a.292.292,0,0,1,.291-.291h1.36a.292.292,0,0,1,.291.291v7.407a.291.291,0,0,1-.291.291Zm.291-.58h.778V4.12H8.805Zm-3.032.58a.291.291,0,0,1-.292-.291v-3.5a.292.292,0,0,1,.292-.291h1.36a.291.291,0,0,1,.29.291v3.5a.291.291,0,0,1-.29.291Zm.29-.58h.778V8.026H6.064Zm-3.032.58a.291.291,0,0,1-.291-.291V6.09a.291.291,0,0,1,.291-.29H4.391a.291.291,0,0,1,.291.29v5.147a.291.291,0,0,1-.291.291Zm.291-.58H4.1V6.382H3.323Zm-3.032.58A.289.289,0,0,1,0,11.237v-2.1a.289.289,0,0,1,.291-.29h1.36a.29.29,0,0,1,.291.29v2.1a.29.29,0,0,1-.291.291Zm.291-.58H1.36V9.432H.581ZM.045,7.208a.929.929,0,0,1,1.163-.9L3.026,3.681a.926.926,0,1,1,1.612-.622.94.94,0,0,1-.072.36L5.887,4.462a.958.958,0,0,1,.8-.164L8.512,1.551a.925.925,0,1,1,.682.3.882.882,0,0,1-.266-.04L7.113,4.546a.923.923,0,1,1-1.522.311L4.259,3.8a.953.953,0,0,1-.817.139L1.633,6.563a.917.917,0,0,1,.263.645.926.926,0,0,1-1.852,0Zm.492,0A.434.434,0,1,0,.97,6.775.433.433,0,0,0,.537,7.208ZM6.019,5.2a.434.434,0,1,0,.434-.434A.432.432,0,0,0,6.019,5.2ZM3.278,3.059a.434.434,0,1,0,.434-.435A.435.435,0,0,0,3.278,3.059ZM8.76.925A.434.434,0,1,0,9.194.492.434.434,0,0,0,8.76.925Z" transform="translate(0.5 0.5)" stroke="rgba(0,0,0,0)" stroke-miterlimit="10" stroke-width="1"/>
</svg>
